# xmcd
#
# Track frame offsets:
#	150
#	12211
#	21482
#	36611
#	42133
#	47559
#	57218
#	64103
#	79912
#	86729
#	94943
#	104109
#	114051
#	122527
#	132590
#	142187
#	150287
#	155750
#	170625
#	178746
#
# Disc length: 2529 seconds
#
# Revision: 0
# Processed by: cddbd v1.5.2PL0 Copyright (c) Steve Scherf et al.
# Submitted via: EasyCDDAExtractor 16.0.1.1
#
DISCID=1909df14
DTITLE=J  E  Mainer - The Legendary J  E  Mainer - Volume 08
DYEAR=1900
DGENRE=Western
TTITLE0=Fallen Leaf
TTITLE1=Cacklin' Hen
TTITLE2=Mary Of The Wild Moor
TTITLE3=Let's Go Down Town
TTITLE4=Picking Up Corn
TTITLE5=Young Roger The Miller
TTITLE6=You're Bound To Look Like A Monkey
TTITLE7=If You Should See Your Sister
TTITLE8=Old Pine Tree
TTITLE9=Wild Cat Woman
TTITLE10=Bring Me A Leaf From The Sea
TTITLE11=Gambling On The Sabbath Day
TTITLE12=Alabama Gal
TTITLE13=Short Life Of Trouble
TTITLE14=Swanee No Tunnel
TTITLE15=Big Ball In Town
TTITLE16=Big Eyed Rabbit
TTITLE17=Old And In The Way
TTITLE18=Over The Waves
TTITLE19=Shadow Of The Pines
EXTD=
EXTT0=
EXTT1=
EXTT2=
EXTT3=
EXTT4=
EXTT5=
EXTT6=
EXTT7=
EXTT8=
EXTT9=
EXTT10=
EXTT11=
EXTT12=
EXTT13=
EXTT14=
EXTT15=
EXTT16=
EXTT17=
EXTT18=
EXTT19=
PLAYORDER=
